
<svg width="400" height="300" viewBox="0 0 400 300" fill="none" xmlns="http://www.w3.org/2000/svg">
  <rect width="400" height="300" fill="#E6F0E0"/>
  <path d="M200 150C211.046 150 220 141.046 220 130C220 118.954 211.046 110 200 110C188.954 110 180 118.954 180 130C180 141.046 188.954 150 200 150Z" fill="#62AD32"/>
  <path d="M250 190C261.046 190 270 181.046 270 170C270 158.954 261.046 150 250 150C238.954 150 230 158.954 230 170C230 181.046 238.954 190 250 190Z" fill="#83C953"/>
  <path d="M150 190C161.046 190 170 181.046 170 170C170 158.954 161.046 150 150 150C138.954 150 130 158.954 130 170C130 181.046 138.954 190 150 190Z" fill="#83C953"/>
</svg>
